<?xml version="1.0" encoding="iso-8859-1"?>
<!-- Generator: Adobe Illustrator 18.1.1, SVG Export Plug-In . SVG Version: 6.00 Build 0)  -->
<svg xmlns="http://www.w3.org/2000/svg" xmlns:xlink="http://www.w3.org/1999/xlink" version="1.1" id="Capa_1" x="0px" y="0px" viewBox="0 0 47.695 47.695" style="enable-background:new 0 0 47.695 47.695;" xml:space="preserve" width="512px" height="512px">
<g>
	<g>
		<path d="M2.082,47.195c0,0.275,0.224,0.5,0.5,0.5s0.5-0.225,0.5-0.5V12.932    c-0.339-0.036-0.686-0.111-1-0.255V47.195z" fill="#255cfc"/>
		<path d="M4.007,12.968c-0.002,0-0.005,0-0.007,0c-0.157,0-0.337-0.003-0.525-0.01v34.237    c0,0.275,0.224,0.5,0.5,0.5s0.5-0.225,0.5-0.5V12.966l-0.062-0.001L4.007,12.968z" fill="#255cfc"/>
		<path d="M5.6,47.193c0,0.276,0.224,0.5,0.5,0.5s0.5-0.223,0.5-0.498V13.01l-1-0.021V47.193z" fill="#255cfc"/>
		<path d="M7.308,47.193c0,0.276,0.224,0.5,0.5,0.5c0.277,0.002,0.5-0.223,0.5-0.498v-34.15l-1-0.021V47.193z    " fill="#255cfc"/>
		<path d="M9.017,34.638c0,0.275,0.224,0.5,0.5,0.5s0.5-0.223,0.5-0.499V13.08l-1-0.021V34.638z" fill="#255cfc"/>
		<path d="M10.725,34.638c0,0.275,0.224,0.5,0.5,0.5s0.5-0.223,0.5-0.499V13.115l-1-0.021V34.638z" fill="#255cfc"/>
		<path d="M22.07,7.925L43.169,4.73c0.611-0.113,1.156-0.466,1.517-0.991c0.36-0.524,0.497-1.159,0.381-1.786    C44.859,0.821,43.875,0,42.724,0c-0.145,0-0.29,0.014-0.438,0.041L4.293,8.33C3.498,8.477,2.871,8.606,2.486,8.85    C2.461,8.866,2.443,8.886,2.42,8.903c0.54-0.159,1.185-0.189,1.96-0.198L22.07,7.925z" fill="#255cfc"/>
		<path d="M43.288,7.997L22.161,8.926l-4.706,0.207L12.747,9.34L4.41,9.707C3.6,9.716,2.961,9.737,2.54,9.911    c-0.13,0.054-0.236,0.131-0.323,0.235c-0.117,0.141-0.19,0.347-0.193,0.677c0,0.017-0.004,0.026-0.004,0.044    c0.002,0.169,0.025,0.308,0.062,0.432c0.024,0.076,0.058,0.149,0.101,0.213c0.152,0.225,0.427,0.353,0.899,0.411    c0.12,0.015,0.248,0.027,0.394,0.034c0.161,0.008,0.337,0.011,0.532,0.011l0.411-0.003l0.057,0.001l1.125,0.023l1,0.021    l0.708,0.015l1,0.021l0.709,0.015l1,0.021l0.708,0.015l1,0.021l31.598,0.65c0.633-0.01,1.228-0.265,1.67-0.718    c0.445-0.456,0.688-1.058,0.68-1.695C45.658,9.054,44.587,7.997,43.288,7.997z" fill="#255cfc"/>
	</g>
</g>
<g>
</g>
<g>
</g>
<g>
</g>
<g>
</g>
<g>
</g>
<g>
</g>
<g>
</g>
<g>
</g>
<g>
</g>
<g>
</g>
<g>
</g>
<g>
</g>
<g>
</g>
<g>
</g>
<g>
</g>
</svg>
