<?xml version="1.0" encoding="iso-8859-1"?>
<!-- Generator: Adobe Illustrator 16.0.0, SVG Export Plug-In . SVG Version: 6.00 Build 0)  -->
<!DOCTYPE svg PUBLIC "-//W3C//DTD SVG 1.1//EN" "http://www.w3.org/Graphics/SVG/1.1/DTD/svg11.dtd">
<svg xmlns="http://www.w3.org/2000/svg" xmlns:xlink="http://www.w3.org/1999/xlink" version="1.1" id="Capa_1" x="0px" y="0px" width="512px" height="512px" viewBox="0 0 318.478 318.478" style="enable-background:new 0 0 318.478 318.478;" xml:space="preserve">
<g>
	<path d="M284.188,127.005l-263.443-0.604c-22.106,0-20.729-22.02-20.729-22.02c0-19.08,21.053-19.416,21.053-19.416h22.032   c0.015,0-4.377,21.38,20.404,21.38h43.226c7.614-0.333,12.631-2.717,15.925-5.786c6.999-6.512,14.567-15.588,24.751-15.588h43.003   c0.006,0-0.984,21.38,24.733,21.38h40.208c7.614,0,12.742-2.363,16.195-5.497c7.152-6.506,12.604-15.547,19.414-15.547h12.333   c4.72,0,8.401,3.495,11.091,7.584c4.246,6.468,6.186,20.309,0.848,26.593C309.889,125.762,294.372,127.029,284.188,127.005z    M269.309,287.993c-6.54,6.281-21.239,10.005-31.424,10.017l-173.274,0.312c-3.843,0-8.551-4.552-12.598-9.626   c-5.614-7.02-10.479-21.623-12.175-31.663l-15.162-89.664c-1.699-10.052,5.182-18.179,15.372-18.167l241.264,0.339   c10.185,0.012,17.054,8.167,15.337,18.207l-18.279,106.819C277.162,279.371,273.397,284.079,269.309,287.993z M231.838,84.966   c-7.374,0-17.275-0.898-21.089-3.801c-3.818-2.894-10.682-12.868-17.714-20.242l-15.931-16.717   c-7.025-7.374-13.97-18.294-10.412-21.684c1.549-1.474,4.119-2.359,8.377-2.359c0,0,7.182,0,16.038,0   c8.852,0,19.366,1.378,22.71,4.167c3.346,2.798,9.458,12.73,16.165,20.398L243.716,60.4c6.713,7.668,13.667,18.975,9.998,22.338   c-1.52,1.396-4.113,2.228-8.533,2.228C245.187,84.966,239.206,84.966,231.838,84.966z M138.437,44.929L125.518,60.19   c-6.582,7.779-12.772,17.747-15.907,20.764c-3.138,3.027-12.982,4.006-20.729,4.006H74.849c-4.401,0-6.995-0.838-8.515-2.234   c-3.66-3.368,3.051-14.855,9.488-22.749L99.58,30.848c1.711-2.294,3.414-4.213,4.939-5.756c2.945-2.981,12.328-4.936,20.438-4.936   h14.69c4.798,0,7.497,0.694,8.989,1.879C152.689,25.242,145.015,37.158,138.437,44.929z" fill="#D80027"/>
</g>
<g>
</g>
<g>
</g>
<g>
</g>
<g>
</g>
<g>
</g>
<g>
</g>
<g>
</g>
<g>
</g>
<g>
</g>
<g>
</g>
<g>
</g>
<g>
</g>
<g>
</g>
<g>
</g>
<g>
</g>
</svg>
